PathFileType	4	(X/Y/Z)	C:/Users/opensim2020/Desktop/walking_exp_matlab/subject03_walking04_straight_04.trc																																																																																																																																																							
DataRate	CameraRate	NumFrames	NumMarkers	Units	OrigDataRate	OrigDataStartFrame	OrigNumFrames																																																																																																																																																			
100	100	8	51	mm	100	3135	293																																																																																																																																																			
Frame#	Time	LFHD			RFHD			LBHD			RBHD			C7			T10			CLAV			STRN			RBAK			LSHO			LUPA			LELB			LFRM			LWRA			LWRB			LFIN			RSHO			RUPA			RELB			RFRM			RWRA			RWRB			RFIN			LASI			RASI			LPSI			RPSI			LTHI			LKNE			LTIB			LANK			LHEE			LTOE			RTHI			RKNE			RTIB			RANK			RHEE			RTOE			*39			*40			*41			*42			*43			*44			*45			*46			*47			*48			*49			*50		
		X1	Y1	Z1	X2	Y2	Z2	X3	Y3	Z3	X4	Y4	Z4	X5	Y5	Z5	X6	Y6	Z6	X7	Y7	Z7	X8	Y8	Z8	X9	Y9	Z9	X10	Y10	Z10	X11	Y11	Z11	X12	Y12	Z12	X13	Y13	Z13	X14	Y14	Z14	X15	Y15	Z15	X16	Y16	Z16	X17	Y17	Z17	X18	Y18	Z18	X19	Y19	Z19	X20	Y20	Z20	X21	Y21	Z21	X22	Y22	Z22	X23	Y23	Z23	X24	Y24	Z24	X25	Y25	Z25	X26	Y26	Z26	X27	Y27	Z27	X28	Y28	Z28	X29	Y29	Z29	X30	Y30	Z30	X31	Y31	Z31	X32	Y32	Z32	X33	Y33	Z33	X34	Y34	Z34	X35	Y35	Z35	X36	Y36	Z36	X37	Y37	Z37	X38	Y38	Z38	X39	Y39	Z39	X40	Y40	Z40	X41	Y41	Z41	X42	Y42	Z42	X43	Y43	Z43	X44	Y44	Z44	X45	Y45	Z45	X46	Y46	Z46	X47	Y47	Z47	X48	Y48	Z48	X49	Y49	Z49	X50	Y50	Z50	X51	Y51	Z51
																																																																																																																																																										
110	1.09	-520.48499	1625.56653	-1687.10803	-541.74487	1632.27698	-1555.92627	-639.85718	1561.23767	-1698.4884	-656.2453	1569.07239	-1569.4375	-662.32281	1416.74402	-1636.21973	-696.83655	1104.06213	-1632.76831	-537.04675	1342.12695	-1623.13354	-495.1926	1177.24072	-1621.68359	-720.25336	1245.81262	-1535.83203	-567.89185	1375.25427	-1783.90515	-595.50714	1176.17444	-1850.05286	-608.57526	1052.94922	-1859.88623	-608.92871	922.86151	-1861.37915	-614.76855	803.09845	-1832.67285	-636.09607	813.19763	-1884.44519	-645.5188	727.66583	-1873.04907	-592.71222	1368.17627	-1468.8501	-558.48419	1151.03259	-1392.03125	-515.12976	1047.53772	-1379.93188	-449.93457	928.06195	-1386.38977	-387.54938	855.72003	-1430.20483	-412.15076	835.13458	-1386.63586	-361.74884	783.03046	-1400.97949	-515.21674	944.33051	-1734.22009	-539.2074	937.33258	-1497.61096	-681.71643	964.48224	-1701.21765	-693.86597	968.47931	-1551.79175	-531.79285	642.39075	-1772.35657	-496.5994	470.23962	-1724.6571	-510.73157	275.8121	-1725.18347	-485.26855	68.49802	-1682.97949	-522.80231	33.78456	-1644.98059	-332.69891	38.07475	-1655.82593	-617.88947	640.70831	-1459.08582	-622.10022	459.88525	-1483.71863	-763.64819	323.63379	-1492.91968	-903.96844	162.73685	-1549.16626	-948.50116	169.974	-1606.32397	-830.58716	35.86057	-1574.87085	-618.94159	1674.10242	-1651.11633	NaN	NaN	NaN	NaN	NaN	NaN	NaN	NaN	NaN	NaN	NaN	NaN	NaN	NaN	NaN	NaN	NaN	NaN	NaN	NaN	NaN	NaN	NaN	NaN	NaN	NaN	NaN	NaN	NaN	NaN	NaN	NaN	NaN
111	1.1	-510.47177	1626.31775	-1687.71899	-532.04645	1633.04724	-1556.60107	-630.0968	1562.67603	-1699.46875	-646.64728	1570.33606	-1570.27051	-652.93103	1417.38733	-1637.4469	-687.23132	1104.9823	-1633.61841	-527.72046	1343.17346	-1623.89355	-485.34784	1178.39661	-1622.28027	-710.74158	1246.82935	-1536.61951	-557.84509	1376.54602	-1784.49133	-583.47729	1177.3855	-1850.71936	-595.49298	1054.02979	-1860.16309	-594.66022	924.03217	-1861.50256	-599.90021	804.18359	-1832.60547	-620.6626	814.07227	-1884.6709	-630.69098	728.367	-1873.01636	-583.96454	1369.66833	-1469.99463	-551.2428	1152.23267	-1393.3197	-509.45258	1048.20044	-1381.0968	-446.02112	927.67419	-1386.86267	-384.45245	854.22748	-1430.18994	-409.63766	834.08929	-1386.65942	-360.11984	780.789	-1400.6958	-505.84702	945.59674	-1735.28235	-529.74719	938.43726	-1498.58997	-672.14044	966.18805	-1701.56006	-684.27893	969.52399	-1552.22546	-525.93756	642.89386	-1773.41089	-492.74606	470.38199	-1726.29675	-508.69366	276.08707	-1726.02747	-485.18887	68.41286	-1683.35486	-522.84467	33.83709	-1645.15686	-332.49274	37.82143	-1655.96973	-603.27075	640.17572	-1458.63208	-603.16687	459.26511	-1482.32837	-746.54138	325.91949	-1491.37805	-890.33911	168.43159	-1547.08704	-934.2019	179.54716	-1603.97095	-828.37714	36.71532	-1575.15466	-607.33203	1672.19373	-1645.89124	NaN	NaN	NaN	NaN	NaN	NaN	NaN	NaN	NaN	NaN	NaN	NaN	NaN	NaN	NaN	NaN	NaN	NaN	NaN	NaN	NaN	NaN	NaN	NaN	NaN	NaN	NaN	NaN	NaN	NaN	NaN	NaN	NaN
112	1.11	-500.50958	1626.77686	-1688.38757	-522.28949	1633.47351	-1557.22534	-620.46381	1563.80457	-1700.38916	-637.23914	1571.47925	-1571.20056	-643.63177	1417.78589	-1638.52148	-677.77478	1105.66663	-1634.45581	-518.37054	1343.94446	-1624.59033	-475.84827	1179.31641	-1622.64233	-701.34125	1247.5625	-1537.38147	-548.02216	1377.57324	-1785.02393	-571.6142	1178.41821	-1851.37524	-582.52606	1055.01184	-1860.72058	-580.22931	925.01984	-1861.74792	-586.19635	804.93707	-1831.85168	-604.80927	814.73712	-1884.97729	-615.13708	728.81537	-1873.06909	-575.30481	1371.07214	-1471.04565	-544.12781	1153.18799	-1394.41492	-503.84933	1048.64539	-1382.09607	-442.30078	927.17072	-1387.1521	-381.41208	852.4754	-1429.99976	-407.2739	832.97961	-1386.55981	-358.92883	778.54004	-1400.43652	-496.93542	946.4696	-1736.03015	-520.44281	939.17218	-1499.44312	-662.78101	967.55402	-1701.97815	-674.98291	970.34515	-1552.75818	-520.36169	643.36017	-1774.40076	-488.57297	470.28186	-1727.43811	-506.66422	276.26736	-1726.58813	-485.07333	68.44082	-1683.34619	-522.88379	33.81017	-1645.24719	-332.29507	37.54607	-1656.04089	-588.66199	639.41943	-1458.23438	-584.03516	458.64249	-1481.50891	-728.54614	327.75131	-1490.01624	-875.61133	173.34232	-1544.44434	-919.15308	189.151	-1600.69165	-825.25763	38.57637	-1575.36597	NaN	NaN	NaN	NaN	NaN	NaN	NaN	NaN	NaN	NaN	NaN	NaN	NaN	NaN	NaN	NaN	NaN	NaN	NaN	NaN	NaN	NaN	NaN	NaN	NaN	NaN	NaN	NaN	NaN	NaN	NaN	NaN	NaN	NaN	NaN	NaN
113	1.12	-490.67563	1627.05286	-1688.98657	-512.47705	1633.71375	-1557.64368	-611.17542	1564.92163	-1701.75256	-627.96918	1572.52612	-1572.2262	-634.75958	1418.25391	-1639.69641	-668.46533	1106.1582	-1635.22107	-509.25043	1344.51099	-1625.15784	-466.58908	1179.91675	-1622.95032	-692.17462	1248.11462	-1538.29529	-538.23511	1378.37085	-1785.45935	-559.93616	1179.24329	-1852.24011	-569.59448	1055.66833	-1861.33582	-565.60901	925.74005	-1862.11597	-570.31592	805.60059	-1831.99927	-588.56921	815.13287	-1885.29871	-598.91644	729.02838	-1873.20776	-566.74255	1372.05701	-1471.96155	-537.09351	1153.9126	-1395.37305	-498.3736	1048.8114	-1382.99988	-438.48343	926.35516	-1387.44568	-378.04468	850.61267	-1429.58215	-405.00351	831.58966	-1386.39355	-357.57977	775.77844	-1400.15405	-487.87723	947.04919	-1736.73669	-511.44385	939.65442	-1500.14941	-653.67206	968.54242	-1702.55237	-665.89935	970.75458	-1553.35303	-514.68274	643.77759	-1775.45178	-484.38678	469.9913	-1728.50757	-504.23779	276.51831	-1727.19092	-485.02325	68.53388	-1683.33813	-522.90338	33.83289	-1645.27246	-331.83609	37.35265	-1656.22363	-574.28699	638.65955	-1458.13	-564.99744	458.15018	-1481.06384	-709.75903	329.02402	-1488.48865	-860.71204	178.54114	-1542.13855	-903.90875	197.91962	-1598.02454	-817.66589	42.50115	-1574.33215	-587.03735	1674.15088	-1647.84033	NaN	NaN	NaN	NaN	NaN	NaN	NaN	NaN	NaN	NaN	NaN	NaN	NaN	NaN	NaN	NaN	NaN	NaN	NaN	NaN	NaN	NaN	NaN	NaN	NaN	NaN	NaN	NaN	NaN	NaN	NaN	NaN	NaN
114	1.13	-480.96347	1627.30872	-1689.5885	-502.8172	1634.03406	-1558.2843	-601.81335	1565.68604	-1702.66467	-618.62567	1573.18921	-1572.81067	-625.75995	1418.6947	-1640.96387	-659.14984	1106.34155	-1635.78943	-500.2478	1345.00366	-1625.66272	-457.42102	1180.42651	-1623.16614	-683.16949	1248.43152	-1539.26782	-528.57721	1378.89587	-1785.89148	-548.37872	1179.75366	-1853.07178	-556.75983	1056.13135	-1862.15076	-551.09528	926.22693	-1862.55725	-554.18591	806.02423	-1832.17224	-572.07953	815.28882	-1885.64563	-582.02759	729.04407	-1873.31396	-558.25446	1372.80847	-1472.72412	-530.12323	1154.32129	-1396.15479	-492.88904	1048.7002	-1383.73291	-434.76688	925.31158	-1387.63416	-375.64603	848.41931	-1429.05457	-402.82404	829.95947	-1386.17676	-356.92554	772.97992	-1399.75476	-478.89526	947.42877	-1737.42285	-502.77457	939.72113	-1500.67383	-644.83569	969.12317	-1703.12878	-657.09894	970.74048	-1554.01245	-508.87674	644.18872	-1776.67297	-480.08435	469.89362	-1729.31909	-501.70596	276.74902	-1727.70203	-484.9729	68.7057	-1683.35083	-522.92682	33.8853	-1645.3324	-331.70721	37.10952	-1656.22119	-560.17151	637.9859	-1458.20349	-546.04236	457.92404	-1480.95886	-690.54047	329.76813	-1486.57178	-845.96228	184.18855	-1540.42334	-889.11981	204.75938	-1596.42639	-805.98407	47.5283	-1571.13013	-578.32257	1677.90674	-1654.24109	NaN	NaN	NaN	NaN	NaN	NaN	NaN	NaN	NaN	NaN	NaN	NaN	NaN	NaN	NaN	NaN	NaN	NaN	NaN	NaN	NaN	NaN	NaN	NaN	NaN	NaN	NaN	NaN	NaN	NaN	NaN	NaN	NaN
115	1.14	-471.40353	1627.53064	-1690.24097	-493.4375	1634.41565	-1559.01074	-592.37671	1566.30139	-1703.3783	-609.47296	1574.04553	-1573.63208	-616.82849	1419.00891	-1641.7395	-650.12439	1106.6167	-1636.43225	-491.43958	1345.40637	-1626.05408	-448.71957	1180.6842	-1623.34448	-674.40582	1248.67273	-1540.27258	-519.04041	1379.11926	-1786.30566	-536.95306	1179.98132	-1853.91125	-543.9245	1056.19019	-1863.04358	-536.23914	926.30841	-1862.95764	-535.46198	805.98755	-1833.61023	-555.24738	815.16064	-1885.97412	-564.45599	728.78973	-1873.46484	-549.849	1373.1991	-1473.24915	-523.33008	1154.33777	-1396.77136	-487.44434	1048.19775	-1384.25769	-431.31985	923.9057	-1387.65283	-373.10767	845.88123	-1428.625	-400.79205	828.06628	-1385.87598	-355.92154	769.77258	-1399.35254	-469.96069	947.53827	-1738.07434	-494.56516	939.53503	-1501.12622	-636.05334	969.39935	-1703.70618	-648.43109	970.36017	-1554.68481	-502.85678	644.48578	-1778.14856	-475.92557	469.77982	-1730.25183	-499.51993	277.07629	-1728.35034	-484.87164	68.90607	-1683.21533	-522.92621	33.92055	-1645.36462	-331.53821	36.89885	-1656.18701	-546.66296	637.75293	-1458.37988	-527.10413	457.97766	-1480.89258	-671.58185	331.1069	-1484.98071	-830.6261	189.9613	-1539.44763	-873.89764	209.84941	-1595.97644	-791.38354	52.54459	-1567.47156	NaN	NaN	NaN	NaN	NaN	NaN	NaN	NaN	NaN	NaN	NaN	NaN	NaN	NaN	NaN	NaN	NaN	NaN	NaN	NaN	NaN	NaN	NaN	NaN	NaN	NaN	NaN	NaN	NaN	NaN	NaN	NaN	NaN	NaN	NaN	NaN
116	1.15	-461.89706	1627.69543	-1690.78967	-484.19391	1634.78186	-1559.5752	-583.04419	1566.83679	-1703.99658	-600.41553	1574.7157	-1574.12952	-607.8269	1419.37976	-1642.35718	-641.26355	1106.85132	-1637.09424	-482.77155	1345.69482	-1626.38037	-440.11584	1180.8772	-1623.45532	-665.81763	1248.79211	-1541.30042	-509.6225	1379.0791	-1786.6709	-525.58966	1179.96838	-1854.76807	-531.08264	1056.06628	-1864.00195	-521.30627	926.47778	-1863.63855	-518.63232	806.11548	-1833.80383	-538.22479	814.81885	-1886.32275	-546.2334	728.41083	-1873.59814	-541.55951	1373.43579	-1473.64587	-516.54926	1154.07263	-1397.29041	-481.91879	1047.4303	-1384.62781	-427.73657	922.22723	-1387.68091	-370.44217	843.1756	-1428.16199	-398.92227	825.87579	-1385.50391	-355.31158	766.45258	-1399.00842	-461.01733	947.64197	-1738.80017	-485.57129	939.45056	-1501.52759	-627.76202	969.64557	-1704.54175	-639.92651	969.81995	-1555.37329	-496.93594	644.6087	-1779.1698	-471.6687	469.7543	-1731.10071	-496.65253	277.17273	-1728.62024	-484.77719	68.82584	-1683.37708	-522.98914	33.9724	-1645.37427	-331.6517	36.57741	-1656.00232	-533.33246	637.86267	-1458.77441	-508.18582	458.61935	-1480.8689	-652.88269	333.34476	-1485.01758	-814.28546	195.19363	-1538.62292	-857.71204	213.6618	-1595.79602	-773.81195	57.49542	-1562.51965	NaN	NaN	NaN	NaN	NaN	NaN	NaN	NaN	NaN	NaN	NaN	NaN	NaN	NaN	NaN	NaN	NaN	NaN	NaN	NaN	NaN	NaN	NaN	NaN	NaN	NaN	NaN	NaN	NaN	NaN	NaN	NaN	NaN	NaN	NaN	NaN
117	1.16	-452.50107	1627.8988	-1691.32141	-474.88297	1635.16016	-1560.10425	-573.81824	1567.3385	-1704.61353	-591.22009	1575.27722	-1574.6814	-598.99097	1419.98181	-1642.98401	-632.57404	1107.14172	-1637.72522	-474.255	1346.00366	-1626.63123	-431.65573	1181.05396	-1623.64526	-657.54681	1249.01111	-1542.33276	-500.42398	1378.8877	-1786.98523	-514.2196	1179.74402	-1855.50793	-518.02582	1055.87903	-1865.20166	-506.14984	926.35291	-1864.245	-501.5907	806.30011	-1833.92236	-520.92462	814.42987	-1886.62854	-527.3125	727.99634	-1873.73938	-533.28754	1373.46826	-1473.91382	-509.96283	1153.56165	-1397.68811	-476.38208	1046.47034	-1384.99731	-424.18521	920.33337	-1387.73132	-368.04398	840.09479	-1427.67163	-397.14679	823.48993	-1385.18433	-354.69263	763.13373	-1398.4563	-452.66028	947.62457	-1739.48865	-477.1088	939.32336	-1502.00464	-619.37219	969.68866	-1705.21509	-631.4093	969.17969	-1556.07507	-490.82852	644.87445	-1780.1239	-466.98236	469.82013	-1731.54272	-494.35312	277.32248	-1728.95679	-484.64297	69.06657	-1683.17273	-522.96924	34.03547	-1645.36926	-331.53201	36.3745	-1655.99268	-520.09015	638.52753	-1459.30603	-489.53284	460.02686	-1480.86121	-634.38251	336.09729	-1485.48413	-796.77679	199.0674	-1537.75952	-840.61163	216.3098	-1595.4613	-755.03345	61.47234	-1557.87024	-548.71576	1676.67566	-1651.6062	NaN	NaN	NaN	NaN	NaN	NaN	NaN	NaN	NaN	NaN	NaN	NaN	NaN	NaN	NaN	NaN	NaN	NaN	NaN	NaN	NaN	NaN	NaN	NaN	NaN	NaN	NaN	NaN	NaN	NaN	NaN	NaN	NaN
